<svg xmlns="http://www.w3.org/2000/svg" width="528" height="792" viewBox="0 0 528 792"><rect width="528" height="792" fill="white"/><path d="M40 16H488L512 40V752L488 776H40L16 752V40Z" fill="none" stroke="black" stroke-width="6"/><path d="M44 28H484L500 44V748L484 764H44L28 748V44Z" fill="none" stroke="black" stroke-width="2"/><defs><clipPath id="inputl"><rect x="40" y="65" width="30" height="410"/></clipPath></defs><g clip-path="url(#inputl)"><path d="M20 65l70-70v30l-70 70Z"/><path d="M20 129l70-70v30l-70 70Z"/><path d="M20 193l70-70v30l-70 70Z"/><path d="M20 257l70-70v30l-70 70Z"/><path d="M20 321l70-70v30l-70 70Z"/><path d="M20 385l70-70v30l-70 70Z"/><path d="M20 449l70-70v30l-70 70Z"/><path d="M20 513l70-70v30l-70 70Z"/><path d="M20 577l70-70v30l-70 70Z"/><path d="M20 641l70-70v30l-70 70Z"/></g><defs><clipPath id="inputr"><rect x="458" y="65" width="30" height="410"/></clipPath></defs><g clip-path="url(#inputr)"><path d="M438 65l70-70v30l-70 70Z"/><path d="M438 129l70-70v30l-70 70Z"/><path d="M438 193l70-70v30l-70 70Z"/><path d="M438 257l70-70v30l-70 70Z"/><path d="M438 321l70-70v30l-70 70Z"/><path d="M438 385l70-70v30l-70 70Z"/><path d="M438 449l70-70v30l-70 70Z"/><path d="M438 513l70-70v30l-70 70Z"/><path d="M438 577l70-70v30l-70 70Z"/><path d="M438 641l70-70v30l-70 70Z"/></g><g transform="translate(114.5 38) scale(17.9042)"><path fill="black" fill-rule="evenodd" d="M7.34,1.34c-.36,0-.7.06-1.04.17s-.65.28-.93.5c-.28.22-.52.47-.72.77s-.34.62-.44.96c-.07.25-.23.41-.48.48-.27.07-.53.18-.78.32-.25.14-.47.31-.67.51-.2.2-.37.42-.51.67s-.25.51-.32.78-.11.55-.11.84.04.56.11.84c.07.27.18.53.32.78.14.25.31.47.51.67.18.18.24.4.17.65-.07.27-.11.55-.11.84,0,.25.03.49.08.73.06.24.14.47.25.7.11.22.24.43.4.62s.33.36.53.51.41.28.63.38c.23.1.46.18.7.23.24.05.49.07.74.06.25,0,.49-.04.73-.11l.09-.02c.22-.03.4.04.56.19.2.2.42.37.67.51s.51.25.78.32.55.11.84.11.56-.04.84-.11.53-.18.78-.32c.25-.14.47-.31.67-.51s.37-.42.51-.67.25-.51.32-.78l.03-.08c.08-.2.23-.33.45-.39.34-.09.66-.24.96-.44s.55-.44.77-.72c.22-.28.38-.59.5-.93s.17-.68.17-1.04c0-.89-.36-1.7-.95-2.29-.18-.18-.24-.4-.17-.65.07-.27.11-.55.11-.84,0-.25-.03-.49-.08-.73-.06-.24-.14-.47-.25-.7-.11-.22-.24-.43-.4-.62-.16-.19-.33-.36-.53-.51-.2-.15-.41-.28-.63-.38-.23-.1-.46-.18-.7-.23s-.49-.07-.74-.06c-.25,0-.49.04-.73.11-.25.07-.47,0-.65-.17-.59-.59-1.29-.9-2.12-.94h-.17,0ZM7.34,0C8.47,0,9.5.41,10.3,1.09c.26-.05.54-.07.82-.07.33,0,.67.04.99.11.33.07.64.18.95.32.3.14.59.32.85.52.27.2.51.44.72.69.21.26.4.53.55.83.15.3.27.61.36.93.09.32.14.65.15.99.01.33,0,.67-.07,1,.24.28.44.59.61.92.16.33.29.68.37,1.04s.12.73.11,1.1c0,.37-.06.73-.15,1.09-.1.36-.23.7-.41,1.02s-.39.62-.64.89-.53.51-.84.72c-.31.2-.64.37-.98.49-.16.44-.38.85-.67,1.23-.29.38-.62.7-1.01.97-.39.27-.8.48-1.25.62s-.91.21-1.38.21c-1.12,0-2.11-.36-2.96-1.09-.26.05-.54.07-.82.07-.34,0-.67-.04-.99-.11-.33-.07-.64-.18-.95-.32-.3-.14-.59-.32-.85-.52s-.51-.44-.72-.69c-.21-.26-.4-.53-.55-.83s-.27-.61-.36-.93c-.09-.32-.14-.65-.15-.99s0-.67.07-1c-.68-.78-1.04-1.69-1.1-2.72v-.24c0-.47.06-.93.21-1.38.14-.45.35-.87.62-1.25.27-.39.59-.72.97-1.01.37-.29.78-.51,1.23-.67.16-.44.38-.85.67-1.23s.62-.7,1.01-.97.8-.48,1.25-.62C6.41.07,6.87,0,7.34,0"/><g fill="none" stroke="black" stroke-width="1.05" stroke-linecap="round" stroke-linejoin="round"><path d="M6.6 6.55c0-2.05 3.65-2.12 3.65.03 0 1.45-1.9 1.45-1.9 2.85"/><circle cx="8.35" cy="11.25" r=".58" fill="black" stroke="none"/></g></g><path d="M153 1466H576L1128 655V1466H1555V0H1128L579 805V0H153Z" transform="translate(128.016 407.418) scale(0.035156 -0.035156)" fill="black"/><path d="M149 1466H1363V1153H603V920H1308V621H603V332H1385V0H149Z" transform="translate(187.992 407.418) scale(0.035156 -0.035156)" fill="black"/><path d="M149 1466H1363V1153H603V920H1308V621H603V332H1385V0H149Z" transform="translate(239.988 407.418) scale(0.035156 -0.035156)" fill="black"/><path d="M156 1466H829Q1028 1466 1150.5 1412.0Q1273 1358 1353.0 1257.0Q1433 1156 1469.0 1022.0Q1505 888 1505 738Q1505 503 1451.5 373.5Q1398 244 1303.0 156.5Q1208 69 1099 40Q950 0 829 0H156ZM609 1134V333H720Q862 333 922.0 364.5Q982 396 1016.0 474.5Q1050 553 1050 729Q1050 962 974.0 1048.0Q898 1134 722 1134Z" transform="translate(291.984 407.418) scale(0.035156 -0.035156)" fill="black"/><path d="M71 485 502 512Q516 407 559 352Q629 263 759 263Q856 263 908.5 308.5Q961 354 961 414Q961 471 911 516Q861 561 679 601Q381 668 254 779Q126 890 126 1062Q126 1175 191.5 1275.5Q257 1376 388.5 1433.5Q520 1491 749 1491Q1030 1491 1177.5 1386.5Q1325 1282 1353 1054L926 1029Q909 1128 854.5 1173.0Q800 1218 704 1218Q625 1218 585.0 1184.5Q545 1151 545 1103Q545 1068 578 1040Q610 1011 730 986Q1027 922 1155.5 856.5Q1284 791 1342.5 694.0Q1401 597 1401 477Q1401 336 1323.0 217.0Q1245 98 1105.0 36.5Q965 -25 752 -25Q378 -25 234.0 119.0Q90 263 71 485Z" transform="translate(347.988 407.418) scale(0.035156 -0.035156)" fill="black"/><path d="M168 1466H622V0H168Z" transform="translate(138.018 471.539) scale(0.035156 -0.035156)" fill="black"/><path d="M153 1466H576L1128 655V1466H1555V0H1128L579 805V0H153Z" transform="translate(166.037 471.539) scale(0.035156 -0.035156)" fill="black"/><path d="M148 1466H901Q1147 1466 1269.5 1349.0Q1392 1232 1392 1016Q1392 794 1258.5 669.0Q1125 544 851 544H603V0H148ZM603 841H714Q845 841 898.0 886.5Q951 932 951 1003Q951 1072 905.0 1120.0Q859 1168 732 1168H603Z" transform="translate(226.014 471.539) scale(0.035156 -0.035156)" fill="black"/><path d="M1104 1466H1556V592Q1556 462 1515.5 346.5Q1475 231 1388.5 144.5Q1302 58 1207 23Q1075 -26 890 -26Q783 -26 656.5 -11.0Q530 4 445.0 48.5Q360 93 289.5 175.0Q219 257 193 344Q151 484 151 592V1466H603V571Q603 451 669.5 383.5Q736 316 854 316Q971 316 1037.5 382.5Q1104 449 1104 571Z" transform="translate(278.010 471.539) scale(0.035156 -0.035156)" fill="black"/><path d="M47 1466H1424V1104H962V0H509V1104H47Z" transform="translate(337.986 471.539) scale(0.035156 -0.035156)" fill="black"/><path d="M58 502H470L488 520V594L470 612H58L40 594V520Z"/><rect x="40" y="632" width="144" height="92" fill="white" stroke="black" stroke-width="2"/><path d="M156 0V1466H911Q1121 1466 1232.0 1430.0Q1343 1394 1411.0 1296.5Q1479 1199 1479 1059Q1479 937 1427.0 848.5Q1375 760 1284 705Q1226 670 1125 647Q1206 620 1243 593Q1268 575 1315.5 516.0Q1363 457 1379 425L1598 0H1086L844 448Q798 535 762 561Q713 595 651 595H611V0ZM611 872H802Q833 872 922 892Q967 901 995.5 938.0Q1024 975 1024 1023Q1024 1094 979.0 1132.0Q934 1170 810 1170H611Z" transform="translate(75.342 664.475) scale(0.014648 -0.014648)" fill="black"/><path d="M1104 1466H1556V592Q1556 462 1515.5 346.5Q1475 231 1388.5 144.5Q1302 58 1207 23Q1075 -26 890 -26Q783 -26 656.5 -11.0Q530 4 445.0 48.5Q360 93 289.5 175.0Q219 257 193 344Q151 484 151 592V1466H603V571Q603 451 669.5 383.5Q736 316 854 316Q971 316 1037.5 382.5Q1104 449 1104 571Z" transform="translate(98.677 664.475) scale(0.014648 -0.014648)" fill="black"/><path d="M153 1466H576L1128 655V1466H1555V0H1128L579 805V0H153Z" transform="translate(123.667 664.475) scale(0.014648 -0.014648)" fill="black"/><rect x="192" y="632" width="144" height="92" fill="black" stroke="black" stroke-width="2"/><path d="M168 1466H622V0H168Z" transform="translate(211.507 664.475) scale(0.014648 -0.014648)" fill="white"/><path d="M153 1466H576L1128 655V1466H1555V0H1128L579 805V0H153Z" transform="translate(223.182 664.475) scale(0.014648 -0.014648)" fill="white"/><path d="M148 1466H901Q1147 1466 1269.5 1349.0Q1392 1232 1392 1016Q1392 794 1258.5 669.0Q1125 544 851 544H603V0H148ZM603 841H714Q845 841 898.0 886.5Q951 932 951 1003Q951 1072 905.0 1120.0Q859 1168 732 1168H603Z" transform="translate(248.172 664.475) scale(0.014648 -0.014648)" fill="white"/><path d="M1104 1466H1556V592Q1556 462 1515.5 346.5Q1475 231 1388.5 144.5Q1302 58 1207 23Q1075 -26 890 -26Q783 -26 656.5 -11.0Q530 4 445.0 48.5Q360 93 289.5 175.0Q219 257 193 344Q151 484 151 592V1466H603V571Q603 451 669.5 383.5Q736 316 854 316Q971 316 1037.5 382.5Q1104 449 1104 571Z" transform="translate(269.837 664.475) scale(0.014648 -0.014648)" fill="white"/><path d="M47 1466H1424V1104H962V0H509V1104H47Z" transform="translate(294.828 664.475) scale(0.014648 -0.014648)" fill="white"/><rect x="344" y="632" width="144" height="92" fill="white" stroke="black" stroke-width="2"/><path d="M156 0V1466H911Q1121 1466 1232.0 1430.0Q1343 1394 1411.0 1296.5Q1479 1199 1479 1059Q1479 937 1427.0 848.5Q1375 760 1284 705Q1226 670 1125 647Q1206 620 1243 593Q1268 575 1315.5 516.0Q1363 457 1379 425L1598 0H1086L844 448Q798 535 762 561Q713 595 651 595H611V0ZM611 872H802Q833 872 922 892Q967 901 995.5 938.0Q1024 975 1024 1023Q1024 1094 979.0 1132.0Q934 1170 810 1170H611Z" transform="translate(358.498 664.475) scale(0.014648 -0.014648)" fill="black"/><path d="M149 1466H1363V1153H603V920H1308V621H603V332H1385V0H149Z" transform="translate(381.833 664.475) scale(0.014648 -0.014648)" fill="black"/><path d="M1052 242H536L465 0H2L553 1466H1047L1598 0H1124ZM957 559 795 1086 634 559Z" transform="translate(403.498 664.475) scale(0.014648 -0.014648)" fill="black"/><path d="M156 1466H829Q1028 1466 1150.5 1412.0Q1273 1358 1353.0 1257.0Q1433 1156 1469.0 1022.0Q1505 888 1505 738Q1505 503 1451.5 373.5Q1398 244 1303.0 156.5Q1208 69 1099 40Q950 0 829 0H156ZM609 1134V333H720Q862 333 922.0 364.5Q982 396 1016.0 474.5Q1050 553 1050 729Q1050 962 974.0 1048.0Q898 1134 722 1134Z" transform="translate(426.833 664.475) scale(0.014648 -0.014648)" fill="black"/><path d="M2 1466H505L801 971L1097 1466H1597L1027 614V0H573V614Z" transform="translate(450.167 664.475) scale(0.014648 -0.014648)" fill="black"/><path d="M48 738h18l15 15h-18Z"/><path d="M80 738h18l15 15h-18Z"/><path d="M112 738h18l15 15h-18Z"/><path d="M218 741l5 5 -5 5 -5 -5Z"/><path d="M250 741l5 5 -5 5 -5 -5Z"/><path d="M282 741l5 5 -5 5 -5 -5Z"/><g transform="translate(450 735) scale(.5)" fill="none" stroke="black" stroke-width="5"><path d="M12 39V4m0 23L0 18V10m12 23 14-10V12"/><path d="M7 8l5-7 5 7"/><circle cx="12" cy="41" r="4" fill="black"/><circle cx="0" cy="8" r="3" fill="black"/><rect x="23" y="7" width="6" height="6" fill="black"/></g></svg>